<svg width="24" height="24" viewBox="0 0 24 24" fill="none" xmlns="http://www.w3.org/2000/svg">
<g clip-path="url(#clip0_4026_1181)">
<path d="M23.8125 19.9679H0.1875C0.0839531 19.9679 0 19.8839 0 19.7804V4.21973C0 4.11618 0.0839531 4.03223 0.1875 4.03223H23.8125C23.916 4.03223 24 4.11618 24 4.21973V19.7804C24 19.8839 23.916 19.9679 23.8125 19.9679Z" fill="#4BA543"/>
<path d="M22.5513 4.03223V19.9679H23.8124C23.916 19.9679 23.9999 19.8839 23.9999 19.7804V4.21973C23.9999 4.11618 23.916 4.03223 23.8124 4.03223H22.5513Z" fill="#43A047"/>
<path d="M3.2868 11.846L11.8926 5.84524C11.957 5.80029 12.0426 5.80029 12.1071 5.84524L20.7129 11.846C20.8199 11.9207 20.8199 12.079 20.7129 12.1536L12.1071 18.1544C12.0426 18.1994 11.957 18.1994 11.8926 18.1544L3.2868 12.1536C3.17979 12.079 3.17979 11.9207 3.2868 11.846Z" fill="#FECE3F"/>
<path d="M11.9998 15.4767C13.92 15.4767 15.4767 13.92 15.4767 11.9998C15.4767 10.0796 13.92 8.52295 11.9998 8.52295C10.0796 8.52295 8.52295 10.0796 8.52295 11.9998C8.52295 13.92 10.0796 15.4767 11.9998 15.4767Z" fill="#2387EB"/>
<path d="M12.0002 8.52295C11.7518 8.52295 11.5096 8.54948 11.2759 8.59903C12.8483 8.93236 14.0284 10.3281 14.0284 11.9998C14.0284 13.6716 12.8483 15.0673 11.2759 15.4006C11.5096 15.4501 11.7518 15.4767 12.0002 15.4767C13.9205 15.4767 15.4771 13.92 15.4771 11.9998C15.4771 10.0796 13.9205 8.52295 12.0002 8.52295Z" fill="#207BD6"/>
<path d="M8.58398 11.3555L15.2987 13.0993C15.4138 12.7537 15.4771 12.3844 15.4771 12C15.4771 11.8799 15.471 11.7612 15.4591 11.6442L9.15253 10.0063C8.87414 10.4032 8.67675 10.8608 8.58398 11.3555Z" fill="#EFEFEF"/>
<path d="M13.9473 12.7482L15.2986 13.0992C15.4137 12.7536 15.477 12.3842 15.477 11.9999C15.477 11.8798 15.4709 11.7611 15.459 11.6441L13.9473 11.2515C14.0002 11.4925 14.0283 11.7429 14.0283 11.9999C14.0283 12.2568 14.0002 12.5072 13.9473 12.7482Z" fill="#DCDCDC"/>
</g>
<defs>
<clipPath id="clip0_4026_1181">
<rect width="24" height="24" fill="white"/>
</clipPath>
</defs>
</svg>
