<svg width="24" height="24" viewBox="0 0 24 24" fill="none" xmlns="http://www.w3.org/2000/svg">
<mask id="mask0_4026_623" style="mask-type:alpha" maskUnits="userSpaceOnUse" x="0" y="0" width="24" height="24">
<rect width="24" height="24" fill="#D9D9D9"/>
</mask>
<g mask="url(#mask0_4026_623)">
<path d="M15.8077 20.5C15.3987 20.5 15.0465 20.3523 14.751 20.0568C14.4555 19.7613 14.3077 19.409 14.3077 19V14.8077C14.3077 14.3987 14.4555 14.0465 14.751 13.751C15.0465 13.4555 15.3987 13.3077 15.8077 13.3077H20C20.409 13.3077 20.7613 13.4555 21.0568 13.751C21.3523 14.0465 21.5 14.3987 21.5 14.8077V19C21.5 19.409 21.3523 19.7613 21.0568 20.0568C20.7613 20.3523 20.409 20.5 20 20.5H15.8077ZM15.8077 19H20V14.8077H15.8077V19ZM2.5 17.6538V16.1538H11.1155V17.6538H2.5ZM15.8077 10.6923C15.3987 10.6923 15.0465 10.5445 14.751 10.249C14.4555 9.9535 14.3077 9.60125 14.3077 9.19225V5C14.3077 4.591 14.4555 4.23875 14.751 3.94325C15.0465 3.64775 15.3987 3.5 15.8077 3.5H20C20.409 3.5 20.7613 3.64775 21.0568 3.94325C21.3523 4.23875 21.5 4.591 21.5 5V9.19225C21.5 9.60125 21.3523 9.9535 21.0568 10.249C20.7613 10.5445 20.409 10.6923 20 10.6923H15.8077ZM15.8077 9.19225H20V5H15.8077V9.19225ZM2.5 7.84625V6.34625H11.1155V7.84625H2.5Z" fill="#1C1B1F"/>
</g>
</svg>
